<mxfile host="app.diagrams.net" modified="2021-08-17T08:22:17.022Z" agent="5.0 (Windows NT 10.0; Win64; x64) AppleWebKit/537.36 (KHTML, like Gecko) Chrome/92.0.4515.131 Safari/537.36 Edg/92.0.902.73" etag="j-RR1OHSTW2l7hqbFTPe" version="14.9.7" type="github">
  <diagram id="iZSxUYs6nvVQSuJic5YJ" name="Page-1">
    <mxGraphModel dx="782" dy="468" grid="1" gridSize="10" guides="1" tooltips="1" connect="1" arrows="1" fold="1" page="1" pageScale="1" pageWidth="827" pageHeight="1169" math="0" shadow="0">
      <root>
        <mxCell id="0" />
        <mxCell id="1" parent="0" />
        <mxCell id="sy7BUHmaNgnKE1Wm8GWt-76" value="" style="edgeStyle=orthogonalEdgeStyle;rounded=0;orthogonalLoop=1;jettySize=auto;html=1;" parent="1" source="sy7BUHmaNgnKE1Wm8GWt-1" target="sy7BUHmaNgnKE1Wm8GWt-8" edge="1">
          <mxGeometry relative="1" as="geometry" />
        </mxCell>
        <mxCell id="sy7BUHmaNgnKE1Wm8GWt-1" value="签约收单" style="rounded=1;whiteSpace=wrap;html=1;" parent="1" vertex="1">
          <mxGeometry x="442" y="71" width="120" height="60" as="geometry" />
        </mxCell>
        <mxCell id="sy7BUHmaNgnKE1Wm8GWt-75" value="no" style="edgeStyle=orthogonalEdgeStyle;rounded=0;orthogonalLoop=1;jettySize=auto;html=1;" parent="1" source="sy7BUHmaNgnKE1Wm8GWt-8" target="sy7BUHmaNgnKE1Wm8GWt-11" edge="1">
          <mxGeometry relative="1" as="geometry" />
        </mxCell>
        <mxCell id="sy7BUHmaNgnKE1Wm8GWt-8" value="查策略信息表判断委托金额是否超额" style="rhombus;whiteSpace=wrap;html=1;" parent="1" vertex="1">
          <mxGeometry x="435" y="183" width="135" height="80" as="geometry" />
        </mxCell>
        <mxCell id="sy7BUHmaNgnKE1Wm8GWt-74" value="yes" style="edgeStyle=orthogonalEdgeStyle;rounded=0;orthogonalLoop=1;jettySize=auto;html=1;" parent="1" source="sy7BUHmaNgnKE1Wm8GWt-11" target="sy7BUHmaNgnKE1Wm8GWt-12" edge="1">
          <mxGeometry relative="1" as="geometry" />
        </mxCell>
        <mxCell id="sy7BUHmaNgnKE1Wm8GWt-11" value="&lt;font color=&quot;#ff0000&quot;&gt;912104&lt;/font&gt;查看账户信息，判断是否主账户" style="rhombus;whiteSpace=wrap;html=1;" parent="1" vertex="1">
          <mxGeometry x="440" y="303" width="125" height="80" as="geometry" />
        </mxCell>
        <mxCell id="sy7BUHmaNgnKE1Wm8GWt-73" value="未在签约中或已签约" style="edgeStyle=orthogonalEdgeStyle;rounded=0;orthogonalLoop=1;jettySize=auto;html=1;" parent="1" source="sy7BUHmaNgnKE1Wm8GWt-12" target="sy7BUHmaNgnKE1Wm8GWt-15" edge="1">
          <mxGeometry relative="1" as="geometry" />
        </mxCell>
        <mxCell id="sy7BUHmaNgnKE1Wm8GWt-12" value="查签约信息表判断目标策略签约状态" style="rhombus;whiteSpace=wrap;html=1;" parent="1" vertex="1">
          <mxGeometry x="435" y="423" width="135" height="80" as="geometry" />
        </mxCell>
        <mxCell id="sy7BUHmaNgnKE1Wm8GWt-72" value="no" style="edgeStyle=orthogonalEdgeStyle;rounded=0;orthogonalLoop=1;jettySize=auto;html=1;" parent="1" source="sy7BUHmaNgnKE1Wm8GWt-15" target="sy7BUHmaNgnKE1Wm8GWt-16" edge="1">
          <mxGeometry relative="1" as="geometry" />
        </mxCell>
        <mxCell id="sy7BUHmaNgnKE1Wm8GWt-15" value="判断组合状态是否在调仓" style="rhombus;whiteSpace=wrap;html=1;" parent="1" vertex="1">
          <mxGeometry x="430" y="538" width="145" height="80" as="geometry" />
        </mxCell>
        <mxCell id="sy7BUHmaNgnKE1Wm8GWt-71" value="yes" style="edgeStyle=orthogonalEdgeStyle;rounded=0;orthogonalLoop=1;jettySize=auto;html=1;" parent="1" source="sy7BUHmaNgnKE1Wm8GWt-16" target="sy7BUHmaNgnKE1Wm8GWt-17" edge="1">
          <mxGeometry relative="1" as="geometry" />
        </mxCell>
        <mxCell id="sy7BUHmaNgnKE1Wm8GWt-16" value="&lt;div&gt;组合信息查询&lt;/div&gt;&lt;div&gt;&lt;font color=&quot;#ff0000&quot;&gt;/getCombinfoItemsEx&lt;/font&gt;t&lt;/div&gt;&lt;div&gt;判断委托金额是否满足&lt;/div&gt;" style="rhombus;whiteSpace=wrap;html=1;" parent="1" vertex="1">
          <mxGeometry x="420" y="663" width="165" height="80" as="geometry" />
        </mxCell>
        <mxCell id="sy7BUHmaNgnKE1Wm8GWt-70" value="yes" style="edgeStyle=orthogonalEdgeStyle;rounded=0;orthogonalLoop=1;jettySize=auto;html=1;" parent="1" source="sy7BUHmaNgnKE1Wm8GWt-17" target="sy7BUHmaNgnKE1Wm8GWt-18" edge="1">
          <mxGeometry relative="1" as="geometry" />
        </mxCell>
        <mxCell id="sy7BUHmaNgnKE1Wm8GWt-17" value="&lt;font color=&quot;#ff0000&quot;&gt;948068&lt;/font&gt;&lt;br&gt;判断风险等级是否达标" style="rhombus;whiteSpace=wrap;html=1;" parent="1" vertex="1">
          <mxGeometry x="447.5" y="783" width="115" height="80" as="geometry" />
        </mxCell>
        <mxCell id="sy7BUHmaNgnKE1Wm8GWt-69" value="" style="edgeStyle=orthogonalEdgeStyle;rounded=0;orthogonalLoop=1;jettySize=auto;html=1;" parent="1" source="sy7BUHmaNgnKE1Wm8GWt-18" target="sy7BUHmaNgnKE1Wm8GWt-19" edge="1">
          <mxGeometry relative="1" as="geometry" />
        </mxCell>
        <mxCell id="sy7BUHmaNgnKE1Wm8GWt-18" value="限制机构签约" style="rounded=0;whiteSpace=wrap;html=1;" parent="1" vertex="1">
          <mxGeometry x="445" y="913" width="120" height="60" as="geometry" />
        </mxCell>
        <mxCell id="sy7BUHmaNgnKE1Wm8GWt-19" value="kcy记录表&lt;br&gt;判断做过KCY且合格" style="rhombus;whiteSpace=wrap;html=1;" parent="1" vertex="1">
          <mxGeometry x="465" y="1018" width="80" height="80" as="geometry" />
        </mxCell>
        <mxCell id="sy7BUHmaNgnKE1Wm8GWt-66" value="资金&amp;gt;委托金额" style="edgeStyle=orthogonalEdgeStyle;rounded=0;orthogonalLoop=1;jettySize=auto;html=1;" parent="1" source="sy7BUHmaNgnKE1Wm8GWt-20" target="sy7BUHmaNgnKE1Wm8GWt-21" edge="1">
          <mxGeometry x="-1" y="45" relative="1" as="geometry">
            <mxPoint as="offset" />
          </mxGeometry>
        </mxCell>
        <mxCell id="sy7BUHmaNgnKE1Wm8GWt-20" value="&lt;font color=&quot;#ff0000&quot;&gt;911013&lt;/font&gt;查用户资金信息与委托金额比较" style="rhombus;whiteSpace=wrap;html=1;" parent="1" vertex="1">
          <mxGeometry x="705" y="183" width="80" height="80" as="geometry" />
        </mxCell>
        <mxCell id="sy7BUHmaNgnKE1Wm8GWt-65" value="" style="edgeStyle=orthogonalEdgeStyle;rounded=0;orthogonalLoop=1;jettySize=auto;html=1;" parent="1" source="sy7BUHmaNgnKE1Wm8GWt-21" target="sy7BUHmaNgnKE1Wm8GWt-22" edge="1">
          <mxGeometry relative="1" as="geometry" />
        </mxCell>
        <mxCell id="sy7BUHmaNgnKE1Wm8GWt-21" value="赋予e权限" style="rounded=0;whiteSpace=wrap;html=1;" parent="1" vertex="1">
          <mxGeometry x="685" y="303" width="120" height="60" as="geometry" />
        </mxCell>
        <mxCell id="sy7BUHmaNgnKE1Wm8GWt-64" value="" style="edgeStyle=orthogonalEdgeStyle;rounded=0;orthogonalLoop=1;jettySize=auto;html=1;" parent="1" source="sy7BUHmaNgnKE1Wm8GWt-22" target="sy7BUHmaNgnKE1Wm8GWt-23" edge="1">
          <mxGeometry relative="1" as="geometry" />
        </mxCell>
        <mxCell id="sy7BUHmaNgnKE1Wm8GWt-22" value="&lt;font color=&quot;#ff0000&quot;&gt;912002&lt;/font&gt;用户资料获取&lt;br&gt;赋值联系方式" style="rounded=0;whiteSpace=wrap;html=1;" parent="1" vertex="1">
          <mxGeometry x="685" y="413" width="120" height="60" as="geometry" />
        </mxCell>
        <mxCell id="sy7BUHmaNgnKE1Wm8GWt-63" value="" style="edgeStyle=orthogonalEdgeStyle;rounded=0;orthogonalLoop=1;jettySize=auto;html=1;" parent="1" source="sy7BUHmaNgnKE1Wm8GWt-23" target="sy7BUHmaNgnKE1Wm8GWt-24" edge="1">
          <mxGeometry relative="1" as="geometry" />
        </mxCell>
        <mxCell id="sy7BUHmaNgnKE1Wm8GWt-23" value="&lt;div&gt;&lt;font color=&quot;#ff0000&quot;&gt;ias.postTransAcctOpenExt&lt;/font&gt;&lt;/div&gt;&lt;div&gt;基金交易账户预约开户&lt;/div&gt;" style="rounded=0;whiteSpace=wrap;html=1;" parent="1" vertex="1">
          <mxGeometry x="685" y="533" width="120" height="60" as="geometry" />
        </mxCell>
        <mxCell id="sy7BUHmaNgnKE1Wm8GWt-62" value="" style="edgeStyle=orthogonalEdgeStyle;rounded=0;orthogonalLoop=1;jettySize=auto;html=1;" parent="1" source="sy7BUHmaNgnKE1Wm8GWt-24" target="sy7BUHmaNgnKE1Wm8GWt-25" edge="1">
          <mxGeometry relative="1" as="geometry" />
        </mxCell>
        <mxCell id="sy7BUHmaNgnKE1Wm8GWt-24" value="调用&lt;font color=&quot;#ff0000&quot;&gt;新意接口&lt;/font&gt;&lt;br&gt;基金协议签署" style="rounded=0;whiteSpace=wrap;html=1;" parent="1" vertex="1">
          <mxGeometry x="685" y="673" width="120" height="60" as="geometry" />
        </mxCell>
        <mxCell id="sy7BUHmaNgnKE1Wm8GWt-61" value="yes" style="edgeStyle=orthogonalEdgeStyle;rounded=0;orthogonalLoop=1;jettySize=auto;html=1;" parent="1" source="sy7BUHmaNgnKE1Wm8GWt-25" target="sy7BUHmaNgnKE1Wm8GWt-26" edge="1">
          <mxGeometry relative="1" as="geometry" />
        </mxCell>
        <mxCell id="sy7BUHmaNgnKE1Wm8GWt-25" value="签约成功" style="rhombus;whiteSpace=wrap;html=1;" parent="1" vertex="1">
          <mxGeometry x="705" y="793" width="80" height="70" as="geometry" />
        </mxCell>
        <mxCell id="sy7BUHmaNgnKE1Wm8GWt-26" value="调用一柜通，进行协议签署签约归档" style="rounded=0;whiteSpace=wrap;html=1;" parent="1" vertex="1">
          <mxGeometry x="685" y="913" width="120" height="60" as="geometry" />
        </mxCell>
        <mxCell id="sy7BUHmaNgnKE1Wm8GWt-58" value="yes" style="edgeStyle=orthogonalEdgeStyle;rounded=0;orthogonalLoop=1;jettySize=auto;html=1;" parent="1" source="sy7BUHmaNgnKE1Wm8GWt-27" target="sy7BUHmaNgnKE1Wm8GWt-28" edge="1">
          <mxGeometry relative="1" as="geometry" />
        </mxCell>
        <mxCell id="sy7BUHmaNgnKE1Wm8GWt-27" value="是否要签约同时定投" style="rhombus;whiteSpace=wrap;html=1;" parent="1" vertex="1">
          <mxGeometry x="975" y="193" width="80" height="80" as="geometry" />
        </mxCell>
        <mxCell id="sy7BUHmaNgnKE1Wm8GWt-28" value="柜台在清算时间" style="rhombus;whiteSpace=wrap;html=1;" parent="1" vertex="1">
          <mxGeometry x="975" y="313" width="80" height="80" as="geometry" />
        </mxCell>
        <mxCell id="sy7BUHmaNgnKE1Wm8GWt-55" value="" style="edgeStyle=orthogonalEdgeStyle;rounded=0;orthogonalLoop=1;jettySize=auto;html=1;" parent="1" source="sy7BUHmaNgnKE1Wm8GWt-32" target="sy7BUHmaNgnKE1Wm8GWt-43" edge="1">
          <mxGeometry relative="1" as="geometry" />
        </mxCell>
        <mxCell id="sy7BUHmaNgnKE1Wm8GWt-32" value="是否交易日" style="rhombus;whiteSpace=wrap;html=1;" parent="1" vertex="1">
          <mxGeometry x="1185" y="193" width="80" height="80" as="geometry" />
        </mxCell>
        <mxCell id="sy7BUHmaNgnKE1Wm8GWt-40" value="" style="group" parent="1" vertex="1" connectable="0">
          <mxGeometry x="922" y="443" width="200" height="310" as="geometry" />
        </mxCell>
        <mxCell id="sy7BUHmaNgnKE1Wm8GWt-29" value="postAgreementSignOut，实现投顾签约提交-资金冻结" style="rounded=0;whiteSpace=wrap;html=1;" parent="sy7BUHmaNgnKE1Wm8GWt-40" vertex="1">
          <mxGeometry x="40" y="30" width="120" height="60" as="geometry" />
        </mxCell>
        <mxCell id="sy7BUHmaNgnKE1Wm8GWt-30" value="更新策略签约状态&lt;br&gt;(签约信息表)" style="rounded=0;whiteSpace=wrap;html=1;" parent="sy7BUHmaNgnKE1Wm8GWt-40" vertex="1">
          <mxGeometry x="40" y="135" width="120" height="60" as="geometry" />
        </mxCell>
        <mxCell id="sy7BUHmaNgnKE1Wm8GWt-31" value="通知CRM建立投顾关系" style="rounded=0;whiteSpace=wrap;html=1;" parent="sy7BUHmaNgnKE1Wm8GWt-40" vertex="1">
          <mxGeometry x="40" y="240" width="120" height="60" as="geometry" />
        </mxCell>
        <mxCell id="sy7BUHmaNgnKE1Wm8GWt-39" value="签约提交及回访" style="swimlane;" parent="sy7BUHmaNgnKE1Wm8GWt-40" vertex="1">
          <mxGeometry width="200" height="310" as="geometry" />
        </mxCell>
        <mxCell id="sy7BUHmaNgnKE1Wm8GWt-43" value="当前时间判断" style="rhombus;whiteSpace=wrap;html=1;" parent="1" vertex="1">
          <mxGeometry x="1185" y="303" width="80" height="80" as="geometry" />
        </mxCell>
        <mxCell id="sy7BUHmaNgnKE1Wm8GWt-44" value="收单，T日6点执行" style="ellipse;whiteSpace=wrap;html=1;" parent="1" vertex="1">
          <mxGeometry x="1165" y="443" width="120" height="80" as="geometry" />
        </mxCell>
        <mxCell id="sy7BUHmaNgnKE1Wm8GWt-45" value="收单，T+1日6点执行" style="ellipse;whiteSpace=wrap;html=1;" parent="1" vertex="1">
          <mxGeometry x="1315" y="303" width="120" height="80" as="geometry" />
        </mxCell>
        <mxCell id="sy7BUHmaNgnKE1Wm8GWt-46" value="直接调用签约及回访" style="ellipse;whiteSpace=wrap;html=1;" parent="1" vertex="1">
          <mxGeometry x="1315" y="443" width="120" height="80" as="geometry" />
        </mxCell>
        <mxCell id="sy7BUHmaNgnKE1Wm8GWt-47" value="" style="endArrow=classic;html=1;exitX=1;exitY=0.5;exitDx=0;exitDy=0;entryX=0;entryY=0.5;entryDx=0;entryDy=0;" parent="1" source="sy7BUHmaNgnKE1Wm8GWt-43" target="sy7BUHmaNgnKE1Wm8GWt-45" edge="1">
          <mxGeometry width="50" height="50" relative="1" as="geometry">
            <mxPoint x="1265" y="423" as="sourcePoint" />
            <mxPoint x="1315" y="373" as="targetPoint" />
          </mxGeometry>
        </mxCell>
        <mxCell id="sy7BUHmaNgnKE1Wm8GWt-48" value="时间&amp;gt;17点" style="edgeLabel;html=1;align=center;verticalAlign=middle;resizable=0;points=[];" parent="sy7BUHmaNgnKE1Wm8GWt-47" vertex="1" connectable="0">
          <mxGeometry x="-0.4" relative="1" as="geometry">
            <mxPoint x="5" y="-23" as="offset" />
          </mxGeometry>
        </mxCell>
        <mxCell id="sy7BUHmaNgnKE1Wm8GWt-49" value="" style="endArrow=classic;html=1;exitX=0.5;exitY=1;exitDx=0;exitDy=0;entryX=0.5;entryY=0;entryDx=0;entryDy=0;" parent="1" source="sy7BUHmaNgnKE1Wm8GWt-43" target="sy7BUHmaNgnKE1Wm8GWt-44" edge="1">
          <mxGeometry width="50" height="50" relative="1" as="geometry">
            <mxPoint x="1265" y="443" as="sourcePoint" />
            <mxPoint x="1315" y="393" as="targetPoint" />
          </mxGeometry>
        </mxCell>
        <mxCell id="sy7BUHmaNgnKE1Wm8GWt-50" value="时间&amp;lt;3点" style="edgeLabel;html=1;align=center;verticalAlign=middle;resizable=0;points=[];" parent="sy7BUHmaNgnKE1Wm8GWt-49" vertex="1" connectable="0">
          <mxGeometry x="0.4333" y="-1" relative="1" as="geometry">
            <mxPoint x="-29" y="-3" as="offset" />
          </mxGeometry>
        </mxCell>
        <mxCell id="sy7BUHmaNgnKE1Wm8GWt-51" value="" style="endArrow=classic;html=1;entryX=0.5;entryY=0;entryDx=0;entryDy=0;" parent="1" target="sy7BUHmaNgnKE1Wm8GWt-46" edge="1">
          <mxGeometry width="50" height="50" relative="1" as="geometry">
            <mxPoint x="1225" y="383" as="sourcePoint" />
            <mxPoint x="1315" y="413" as="targetPoint" />
            <Array as="points">
              <mxPoint x="1225" y="393" />
              <mxPoint x="1375" y="393" />
            </Array>
          </mxGeometry>
        </mxCell>
        <mxCell id="sy7BUHmaNgnKE1Wm8GWt-52" value="时间在3-17点间" style="edgeLabel;html=1;align=center;verticalAlign=middle;resizable=0;points=[];" parent="sy7BUHmaNgnKE1Wm8GWt-51" vertex="1" connectable="0">
          <mxGeometry x="0.0544" y="-3" relative="1" as="geometry">
            <mxPoint x="49" y="27" as="offset" />
          </mxGeometry>
        </mxCell>
        <mxCell id="sy7BUHmaNgnKE1Wm8GWt-53" value="" style="endArrow=classic;html=1;exitX=1;exitY=0.5;exitDx=0;exitDy=0;entryX=0.5;entryY=0;entryDx=0;entryDy=0;" parent="1" source="sy7BUHmaNgnKE1Wm8GWt-32" target="sy7BUHmaNgnKE1Wm8GWt-45" edge="1">
          <mxGeometry width="50" height="50" relative="1" as="geometry">
            <mxPoint x="1305" y="303" as="sourcePoint" />
            <mxPoint x="1355" y="253" as="targetPoint" />
            <Array as="points">
              <mxPoint x="1375" y="233" />
            </Array>
          </mxGeometry>
        </mxCell>
        <mxCell id="sy7BUHmaNgnKE1Wm8GWt-54" value="no" style="edgeLabel;html=1;align=center;verticalAlign=middle;resizable=0;points=[];" parent="sy7BUHmaNgnKE1Wm8GWt-53" vertex="1" connectable="0">
          <mxGeometry x="-0.2414" relative="1" as="geometry">
            <mxPoint x="-58" y="-10" as="offset" />
          </mxGeometry>
        </mxCell>
        <mxCell id="sy7BUHmaNgnKE1Wm8GWt-56" value="yes" style="text;html=1;strokeColor=none;fillColor=none;align=center;verticalAlign=middle;whiteSpace=wrap;rounded=0;" parent="1" vertex="1">
          <mxGeometry x="1185" y="273" width="40" height="20" as="geometry" />
        </mxCell>
        <mxCell id="sy7BUHmaNgnKE1Wm8GWt-57" value="no" style="endArrow=classic;html=1;exitX=0.5;exitY=1;exitDx=0;exitDy=0;entryX=0.472;entryY=0;entryDx=0;entryDy=0;entryPerimeter=0;" parent="1" source="sy7BUHmaNgnKE1Wm8GWt-28" target="sy7BUHmaNgnKE1Wm8GWt-39" edge="1">
          <mxGeometry width="50" height="50" relative="1" as="geometry">
            <mxPoint x="1075" y="423" as="sourcePoint" />
            <mxPoint x="1125" y="373" as="targetPoint" />
            <Array as="points">
              <mxPoint x="1016" y="413" />
            </Array>
          </mxGeometry>
        </mxCell>
        <mxCell id="sy7BUHmaNgnKE1Wm8GWt-59" value="no" style="endArrow=classic;html=1;exitX=1;exitY=0.5;exitDx=0;exitDy=0;entryX=0;entryY=0.5;entryDx=0;entryDy=0;" parent="1" source="sy7BUHmaNgnKE1Wm8GWt-27" target="sy7BUHmaNgnKE1Wm8GWt-32" edge="1">
          <mxGeometry x="-0.8462" y="10" width="50" height="50" relative="1" as="geometry">
            <mxPoint x="1105" y="283" as="sourcePoint" />
            <mxPoint x="1155" y="233" as="targetPoint" />
            <mxPoint as="offset" />
          </mxGeometry>
        </mxCell>
        <mxCell id="sy7BUHmaNgnKE1Wm8GWt-60" value="" style="endArrow=classic;html=1;exitX=1;exitY=0.5;exitDx=0;exitDy=0;entryX=0;entryY=0.5;entryDx=0;entryDy=0;" parent="1" source="sy7BUHmaNgnKE1Wm8GWt-26" target="sy7BUHmaNgnKE1Wm8GWt-27" edge="1">
          <mxGeometry width="50" height="50" relative="1" as="geometry">
            <mxPoint x="875" y="923" as="sourcePoint" />
            <mxPoint x="925" y="873" as="targetPoint" />
            <Array as="points">
              <mxPoint x="895" y="943" />
              <mxPoint x="895" y="233" />
            </Array>
          </mxGeometry>
        </mxCell>
        <mxCell id="sy7BUHmaNgnKE1Wm8GWt-67" value="" style="endArrow=classic;html=1;exitX=1;exitY=0.5;exitDx=0;exitDy=0;entryX=0;entryY=0.5;entryDx=0;entryDy=0;" parent="1" source="sy7BUHmaNgnKE1Wm8GWt-19" target="sy7BUHmaNgnKE1Wm8GWt-20" edge="1">
          <mxGeometry width="50" height="50" relative="1" as="geometry">
            <mxPoint x="600" y="1063" as="sourcePoint" />
            <mxPoint x="650" y="1013" as="targetPoint" />
            <Array as="points">
              <mxPoint x="630" y="1058" />
              <mxPoint x="630" y="223" />
            </Array>
          </mxGeometry>
        </mxCell>
        <mxCell id="sy7BUHmaNgnKE1Wm8GWt-68" value="yes" style="edgeLabel;html=1;align=center;verticalAlign=middle;resizable=0;points=[];" parent="sy7BUHmaNgnKE1Wm8GWt-67" vertex="1" connectable="0">
          <mxGeometry x="-0.904" relative="1" as="geometry">
            <mxPoint x="-33" y="-15" as="offset" />
          </mxGeometry>
        </mxCell>
        <mxCell id="0yPfFVZ9I69ewQ06_f26-82" value="" style="edgeStyle=orthogonalEdgeStyle;rounded=0;orthogonalLoop=1;jettySize=auto;html=1;" edge="1" parent="1" source="0yPfFVZ9I69ewQ06_f26-1" target="0yPfFVZ9I69ewQ06_f26-2">
          <mxGeometry relative="1" as="geometry" />
        </mxCell>
        <mxCell id="0yPfFVZ9I69ewQ06_f26-1" value="定投收单" style="rounded=1;whiteSpace=wrap;html=1;" vertex="1" parent="1">
          <mxGeometry x="48" y="1234" width="120" height="60" as="geometry" />
        </mxCell>
        <mxCell id="0yPfFVZ9I69ewQ06_f26-81" value="" style="edgeStyle=orthogonalEdgeStyle;rounded=0;orthogonalLoop=1;jettySize=auto;html=1;" edge="1" parent="1" source="0yPfFVZ9I69ewQ06_f26-2" target="0yPfFVZ9I69ewQ06_f26-18">
          <mxGeometry relative="1" as="geometry" />
        </mxCell>
        <mxCell id="0yPfFVZ9I69ewQ06_f26-2" value="参数检查" style="rounded=0;whiteSpace=wrap;html=1;" vertex="1" parent="1">
          <mxGeometry x="48" y="1354" width="120" height="60" as="geometry" />
        </mxCell>
        <mxCell id="0yPfFVZ9I69ewQ06_f26-79" value="" style="edgeStyle=orthogonalEdgeStyle;rounded=0;orthogonalLoop=1;jettySize=auto;html=1;" edge="1" parent="1" source="0yPfFVZ9I69ewQ06_f26-3" target="0yPfFVZ9I69ewQ06_f26-4">
          <mxGeometry relative="1" as="geometry" />
        </mxCell>
        <mxCell id="0yPfFVZ9I69ewQ06_f26-3" value="948068获取客户偏好" style="rounded=0;whiteSpace=wrap;html=1;" vertex="1" parent="1">
          <mxGeometry x="48" y="1594" width="120" height="60" as="geometry" />
        </mxCell>
        <mxCell id="0yPfFVZ9I69ewQ06_f26-78" value="" style="edgeStyle=orthogonalEdgeStyle;rounded=0;orthogonalLoop=1;jettySize=auto;html=1;" edge="1" parent="1" source="0yPfFVZ9I69ewQ06_f26-4" target="0yPfFVZ9I69ewQ06_f26-5">
          <mxGeometry relative="1" as="geometry" />
        </mxCell>
        <mxCell id="0yPfFVZ9I69ewQ06_f26-4" value="签约基金协议&lt;br&gt;新意orderNetDetail&lt;br&gt;接口" style="rounded=0;whiteSpace=wrap;html=1;" vertex="1" parent="1">
          <mxGeometry x="48" y="1714" width="120" height="60" as="geometry" />
        </mxCell>
        <mxCell id="0yPfFVZ9I69ewQ06_f26-77" value="yes" style="edgeStyle=orthogonalEdgeStyle;rounded=0;orthogonalLoop=1;jettySize=auto;html=1;" edge="1" parent="1" source="0yPfFVZ9I69ewQ06_f26-5" target="0yPfFVZ9I69ewQ06_f26-6">
          <mxGeometry relative="1" as="geometry" />
        </mxCell>
        <mxCell id="0yPfFVZ9I69ewQ06_f26-5" value="协议签署成功" style="rhombus;whiteSpace=wrap;html=1;" vertex="1" parent="1">
          <mxGeometry x="45.5" y="1814" width="126" height="80" as="geometry" />
        </mxCell>
        <mxCell id="0yPfFVZ9I69ewQ06_f26-76" value="" style="edgeStyle=orthogonalEdgeStyle;rounded=0;orthogonalLoop=1;jettySize=auto;html=1;" edge="1" parent="1" source="0yPfFVZ9I69ewQ06_f26-6" target="0yPfFVZ9I69ewQ06_f26-7">
          <mxGeometry relative="1" as="geometry" />
        </mxCell>
        <mxCell id="0yPfFVZ9I69ewQ06_f26-6" value="调用顶点归档接口进行签署协议归档" style="rounded=0;whiteSpace=wrap;html=1;" vertex="1" parent="1">
          <mxGeometry x="49" y="1934" width="120" height="60" as="geometry" />
        </mxCell>
        <mxCell id="0yPfFVZ9I69ewQ06_f26-141" value="yes" style="edgeStyle=orthogonalEdgeStyle;rounded=0;orthogonalLoop=1;jettySize=auto;html=1;" edge="1" parent="1" source="0yPfFVZ9I69ewQ06_f26-7" target="0yPfFVZ9I69ewQ06_f26-140">
          <mxGeometry relative="1" as="geometry" />
        </mxCell>
        <mxCell id="0yPfFVZ9I69ewQ06_f26-7" value="归档成功" style="rhombus;whiteSpace=wrap;html=1;" vertex="1" parent="1">
          <mxGeometry x="48" y="2044" width="121" height="80" as="geometry" />
        </mxCell>
        <mxCell id="0yPfFVZ9I69ewQ06_f26-73" value="" style="edgeStyle=orthogonalEdgeStyle;rounded=0;orthogonalLoop=1;jettySize=auto;html=1;" edge="1" parent="1" source="0yPfFVZ9I69ewQ06_f26-8" target="0yPfFVZ9I69ewQ06_f26-12">
          <mxGeometry relative="1" as="geometry" />
        </mxCell>
        <mxCell id="0yPfFVZ9I69ewQ06_f26-74" value="yes" style="edgeLabel;html=1;align=center;verticalAlign=middle;resizable=0;points=[];" vertex="1" connectable="0" parent="0yPfFVZ9I69ewQ06_f26-73">
          <mxGeometry x="-0.3725" y="-1" relative="1" as="geometry">
            <mxPoint as="offset" />
          </mxGeometry>
        </mxCell>
        <mxCell id="0yPfFVZ9I69ewQ06_f26-8" value="当前日期为交易日" style="rhombus;whiteSpace=wrap;html=1;" vertex="1" parent="1">
          <mxGeometry x="445" y="1224" width="130" height="80" as="geometry" />
        </mxCell>
        <mxCell id="0yPfFVZ9I69ewQ06_f26-11" value="&lt;div style=&quot;text-align: center&quot;&gt;&amp;nbsp; &amp;nbsp; &amp;nbsp;&lt;b&gt;收单表字段&lt;/b&gt;&lt;/div&gt;&lt;div&gt;initDate&lt;span&gt;&amp;nbsp;收单&lt;/span&gt;日期&lt;/div&gt;&lt;div&gt;opDate&lt;span&gt;				&lt;/span&gt;下单日期&lt;/div&gt;&lt;div&gt;taskType&amp;nbsp; &amp;nbsp;收单业务类型&lt;/div&gt;&lt;div&gt;OpEntrustWay&lt;span&gt;			&lt;/span&gt;委托方式&lt;/div&gt;&lt;div&gt;opstation&lt;span&gt;				&lt;/span&gt;操作站点&lt;/div&gt;&lt;div&gt;clientID&lt;span&gt;				&lt;/span&gt;客户id&lt;/div&gt;&lt;div&gt;investAccount&lt;span&gt;			&lt;/span&gt;资金账号&lt;/div&gt;&lt;div&gt;channel&lt;span&gt;					&lt;/span&gt;渠道&lt;/div&gt;&lt;div&gt;clientName&lt;span&gt;				&lt;/span&gt;客户名&lt;/div&gt;&lt;div&gt;Phone&lt;span&gt;					&lt;/span&gt;手机号&lt;/div&gt;&lt;div&gt;combineCode&lt;span&gt;				&lt;/span&gt;策略编码&lt;/div&gt;&lt;div&gt;assetUnit&lt;span&gt;				&lt;/span&gt;资产单元&lt;/div&gt;&lt;div&gt;entrustAccount&lt;span&gt;			&lt;/span&gt;签约预开户账号&lt;/div&gt;&lt;div&gt;beginDate&lt;span&gt;				&lt;/span&gt;开始日期&lt;/div&gt;&lt;div&gt;endDate&lt;span&gt;					&lt;/span&gt;中止日期&lt;/div&gt;&lt;div&gt;srcOrderNo&lt;span&gt;				&lt;/span&gt;流水单号&lt;/div&gt;&lt;div&gt;signTime&lt;span&gt;				&lt;/span&gt;签约时间&lt;/div&gt;&lt;div&gt;balance&lt;span&gt;					&lt;/span&gt;委托金额&lt;/div&gt;&lt;div&gt;orderListYzywlbs&lt;span&gt;		&lt;/span&gt;原子业务类别&lt;/div&gt;&lt;div&gt;customerRiskLevel&lt;span&gt;		&lt;/span&gt;客户风险等级&lt;/div&gt;&lt;div&gt;payCycleUnit&lt;span&gt;			&lt;/span&gt;扣款周期单位&lt;/div&gt;&lt;div&gt;rationDeductDate&lt;span&gt;		&lt;/span&gt;定投扣款日&lt;/div&gt;&lt;div&gt;rationPlanName&lt;span&gt;			&lt;/span&gt;定投计划名称&lt;/div&gt;&lt;div&gt;status&lt;span style=&quot;white-space: pre&quot;&gt;	&lt;/span&gt;状态&lt;/div&gt;&lt;div&gt;errorinfo&amp;nbsp; &amp;nbsp;错误信息&lt;/div&gt;" style="text;html=1;strokeColor=none;fillColor=none;align=left;verticalAlign=top;whiteSpace=wrap;rounded=0;" vertex="1" parent="1">
          <mxGeometry x="60" y="69.5" width="270" height="390.5" as="geometry" />
        </mxCell>
        <mxCell id="0yPfFVZ9I69ewQ06_f26-64" value="" style="edgeStyle=orthogonalEdgeStyle;rounded=0;orthogonalLoop=1;jettySize=auto;html=1;" edge="1" parent="1" source="0yPfFVZ9I69ewQ06_f26-12" target="0yPfFVZ9I69ewQ06_f26-35">
          <mxGeometry relative="1" as="geometry" />
        </mxCell>
        <mxCell id="0yPfFVZ9I69ewQ06_f26-67" value="6-17" style="edgeLabel;html=1;align=center;verticalAlign=middle;resizable=0;points=[];" vertex="1" connectable="0" parent="0yPfFVZ9I69ewQ06_f26-64">
          <mxGeometry x="-0.3776" y="-1" relative="1" as="geometry">
            <mxPoint as="offset" />
          </mxGeometry>
        </mxCell>
        <mxCell id="0yPfFVZ9I69ewQ06_f26-65" value="" style="edgeStyle=orthogonalEdgeStyle;rounded=0;orthogonalLoop=1;jettySize=auto;html=1;" edge="1" parent="1" source="0yPfFVZ9I69ewQ06_f26-12" target="0yPfFVZ9I69ewQ06_f26-20">
          <mxGeometry relative="1" as="geometry" />
        </mxCell>
        <mxCell id="0yPfFVZ9I69ewQ06_f26-66" value="&amp;lt;6" style="edgeLabel;html=1;align=center;verticalAlign=middle;resizable=0;points=[];" vertex="1" connectable="0" parent="0yPfFVZ9I69ewQ06_f26-65">
          <mxGeometry x="-0.4143" y="-1" relative="1" as="geometry">
            <mxPoint as="offset" />
          </mxGeometry>
        </mxCell>
        <mxCell id="0yPfFVZ9I69ewQ06_f26-12" value="时间判断" style="rhombus;whiteSpace=wrap;html=1;align=center;verticalAlign=middle;" vertex="1" parent="1">
          <mxGeometry x="455" y="1344" width="110" height="80" as="geometry" />
        </mxCell>
        <mxCell id="0yPfFVZ9I69ewQ06_f26-80" value="yes" style="edgeStyle=orthogonalEdgeStyle;rounded=0;orthogonalLoop=1;jettySize=auto;html=1;" edge="1" parent="1" source="0yPfFVZ9I69ewQ06_f26-18" target="0yPfFVZ9I69ewQ06_f26-3">
          <mxGeometry relative="1" as="geometry" />
        </mxCell>
        <mxCell id="0yPfFVZ9I69ewQ06_f26-18" value="&lt;span&gt;检查签约信息表中&lt;br&gt;策略是否签约状态&lt;br&gt;&lt;/span&gt;" style="rhombus;whiteSpace=wrap;html=1;align=center;verticalAlign=middle;" vertex="1" parent="1">
          <mxGeometry x="35" y="1454" width="146" height="80" as="geometry" />
        </mxCell>
        <mxCell id="0yPfFVZ9I69ewQ06_f26-20" value="定投收单，下单日期为当前日期" style="rounded=0;whiteSpace=wrap;html=1;align=center;verticalAlign=middle;" vertex="1" parent="1">
          <mxGeometry x="472.5" y="1474" width="75" height="60" as="geometry" />
        </mxCell>
        <mxCell id="0yPfFVZ9I69ewQ06_f26-72" value="" style="edgeStyle=orthogonalEdgeStyle;rounded=0;orthogonalLoop=1;jettySize=auto;html=1;" edge="1" parent="1" source="0yPfFVZ9I69ewQ06_f26-35" target="0yPfFVZ9I69ewQ06_f26-69">
          <mxGeometry relative="1" as="geometry" />
        </mxCell>
        <mxCell id="0yPfFVZ9I69ewQ06_f26-35" value="定投请求下发" style="rounded=0;whiteSpace=wrap;html=1;align=center;verticalAlign=middle;" vertex="1" parent="1">
          <mxGeometry x="355" y="1474" width="80" height="60" as="geometry" />
        </mxCell>
        <mxCell id="0yPfFVZ9I69ewQ06_f26-40" value="定投下次扣款日计算" style="swimlane;align=center;verticalAlign=middle;startSize=40;" vertex="1" parent="1">
          <mxGeometry x="325" y="1714" width="480" height="570" as="geometry" />
        </mxCell>
        <mxCell id="0yPfFVZ9I69ewQ06_f26-50" value="no" style="edgeStyle=orthogonalEdgeStyle;rounded=0;orthogonalLoop=1;jettySize=auto;html=1;entryX=0.5;entryY=0;entryDx=0;entryDy=0;" edge="1" parent="0yPfFVZ9I69ewQ06_f26-40" source="0yPfFVZ9I69ewQ06_f26-42" target="0yPfFVZ9I69ewQ06_f26-46">
          <mxGeometry relative="1" as="geometry">
            <mxPoint x="188" y="188" as="targetPoint" />
          </mxGeometry>
        </mxCell>
        <mxCell id="0yPfFVZ9I69ewQ06_f26-42" value="&lt;span&gt;扣款周期为日、周&lt;/span&gt;" style="rhombus;whiteSpace=wrap;html=1;align=center;verticalAlign=middle;" vertex="1" parent="0yPfFVZ9I69ewQ06_f26-40">
          <mxGeometry x="125.5" y="70" width="125" height="80" as="geometry" />
        </mxCell>
        <mxCell id="0yPfFVZ9I69ewQ06_f26-52" value="yes" style="edgeStyle=orthogonalEdgeStyle;rounded=0;orthogonalLoop=1;jettySize=auto;html=1;entryX=0.5;entryY=0;entryDx=0;entryDy=0;" edge="1" parent="0yPfFVZ9I69ewQ06_f26-40" source="0yPfFVZ9I69ewQ06_f26-46" target="0yPfFVZ9I69ewQ06_f26-47">
          <mxGeometry relative="1" as="geometry" />
        </mxCell>
        <mxCell id="0yPfFVZ9I69ewQ06_f26-58" value="no" style="edgeStyle=orthogonalEdgeStyle;rounded=0;orthogonalLoop=1;jettySize=auto;html=1;" edge="1" parent="0yPfFVZ9I69ewQ06_f26-40" source="0yPfFVZ9I69ewQ06_f26-46">
          <mxGeometry x="0.1121" y="20" relative="1" as="geometry">
            <mxPoint x="290" y="220" as="targetPoint" />
            <mxPoint as="offset" />
          </mxGeometry>
        </mxCell>
        <mxCell id="0yPfFVZ9I69ewQ06_f26-46" value="&lt;span&gt;&quot;当前月份&quot;+“指定扣款日”&amp;lt;下单日期&lt;/span&gt;" style="rhombus;whiteSpace=wrap;html=1;align=center;verticalAlign=middle;" vertex="1" parent="0yPfFVZ9I69ewQ06_f26-40">
          <mxGeometry x="121" y="180" width="134" height="80" as="geometry" />
        </mxCell>
        <mxCell id="0yPfFVZ9I69ewQ06_f26-53" value="" style="edgeStyle=orthogonalEdgeStyle;rounded=0;orthogonalLoop=1;jettySize=auto;html=1;" edge="1" parent="0yPfFVZ9I69ewQ06_f26-40" source="0yPfFVZ9I69ewQ06_f26-47" target="0yPfFVZ9I69ewQ06_f26-48">
          <mxGeometry relative="1" as="geometry" />
        </mxCell>
        <mxCell id="0yPfFVZ9I69ewQ06_f26-47" value="扣款日=&quot;下个月份&quot;+“指定扣款日”" style="rounded=0;whiteSpace=wrap;html=1;align=center;verticalAlign=middle;" vertex="1" parent="0yPfFVZ9I69ewQ06_f26-40">
          <mxGeometry x="128" y="290" width="120" height="60" as="geometry" />
        </mxCell>
        <mxCell id="0yPfFVZ9I69ewQ06_f26-54" value="yes" style="edgeStyle=orthogonalEdgeStyle;rounded=0;orthogonalLoop=1;jettySize=auto;html=1;" edge="1" parent="0yPfFVZ9I69ewQ06_f26-40" source="0yPfFVZ9I69ewQ06_f26-48" target="0yPfFVZ9I69ewQ06_f26-49">
          <mxGeometry x="0.2016" y="12" relative="1" as="geometry">
            <mxPoint as="offset" />
          </mxGeometry>
        </mxCell>
        <mxCell id="0yPfFVZ9I69ewQ06_f26-48" value="&lt;span&gt;扣款日非交易日&lt;/span&gt;" style="rhombus;whiteSpace=wrap;html=1;align=center;verticalAlign=middle;" vertex="1" parent="0yPfFVZ9I69ewQ06_f26-40">
          <mxGeometry x="148" y="390" width="80" height="80" as="geometry" />
        </mxCell>
        <mxCell id="0yPfFVZ9I69ewQ06_f26-49" value="扣款日++" style="rounded=0;whiteSpace=wrap;html=1;align=center;verticalAlign=middle;" vertex="1" parent="0yPfFVZ9I69ewQ06_f26-40">
          <mxGeometry x="128" y="500" width="120" height="60" as="geometry" />
        </mxCell>
        <mxCell id="0yPfFVZ9I69ewQ06_f26-55" value="" style="endArrow=classic;html=1;exitX=0;exitY=0.5;exitDx=0;exitDy=0;entryX=0;entryY=0.5;entryDx=0;entryDy=0;" edge="1" parent="0yPfFVZ9I69ewQ06_f26-40" source="0yPfFVZ9I69ewQ06_f26-49" target="0yPfFVZ9I69ewQ06_f26-48">
          <mxGeometry width="50" height="50" relative="1" as="geometry">
            <mxPoint x="50" y="576" as="sourcePoint" />
            <mxPoint x="100" y="526" as="targetPoint" />
            <Array as="points">
              <mxPoint x="90" y="530" />
              <mxPoint x="90" y="430" />
            </Array>
          </mxGeometry>
        </mxCell>
        <mxCell id="0yPfFVZ9I69ewQ06_f26-57" value="" style="endArrow=classic;html=1;exitX=1;exitY=0.5;exitDx=0;exitDy=0;entryX=0.5;entryY=0;entryDx=0;entryDy=0;" edge="1" parent="0yPfFVZ9I69ewQ06_f26-40" source="0yPfFVZ9I69ewQ06_f26-42">
          <mxGeometry width="50" height="50" relative="1" as="geometry">
            <mxPoint x="340" y="140" as="sourcePoint" />
            <mxPoint x="350" y="190" as="targetPoint" />
            <Array as="points">
              <mxPoint x="350" y="110" />
            </Array>
          </mxGeometry>
        </mxCell>
        <mxCell id="0yPfFVZ9I69ewQ06_f26-83" value="返回扣款日" style="rounded=1;whiteSpace=wrap;html=1;align=center;verticalAlign=middle;" vertex="1" parent="0yPfFVZ9I69ewQ06_f26-40">
          <mxGeometry x="291" y="400" width="120" height="60" as="geometry" />
        </mxCell>
        <mxCell id="0yPfFVZ9I69ewQ06_f26-84" value="&lt;span&gt;接口获取扣款日&lt;/span&gt;" style="rounded=0;whiteSpace=wrap;html=1;align=center;verticalAlign=middle;" vertex="1" parent="0yPfFVZ9I69ewQ06_f26-40">
          <mxGeometry x="291" y="190" width="120" height="60" as="geometry" />
        </mxCell>
        <mxCell id="0yPfFVZ9I69ewQ06_f26-85" value="" style="endArrow=classic;html=1;exitX=0.5;exitY=1;exitDx=0;exitDy=0;entryX=0.5;entryY=0;entryDx=0;entryDy=0;" edge="1" parent="0yPfFVZ9I69ewQ06_f26-40" source="0yPfFVZ9I69ewQ06_f26-84" target="0yPfFVZ9I69ewQ06_f26-83">
          <mxGeometry width="50" height="50" relative="1" as="geometry">
            <mxPoint x="375" y="376" as="sourcePoint" />
            <mxPoint x="425" y="326" as="targetPoint" />
          </mxGeometry>
        </mxCell>
        <mxCell id="0yPfFVZ9I69ewQ06_f26-86" value="no" style="endArrow=classic;html=1;exitX=1;exitY=0.5;exitDx=0;exitDy=0;entryX=0;entryY=0.5;entryDx=0;entryDy=0;" edge="1" parent="0yPfFVZ9I69ewQ06_f26-40" source="0yPfFVZ9I69ewQ06_f26-48" target="0yPfFVZ9I69ewQ06_f26-83">
          <mxGeometry x="-0.1429" y="14" width="50" height="50" relative="1" as="geometry">
            <mxPoint x="305" y="536" as="sourcePoint" />
            <mxPoint x="355" y="486" as="targetPoint" />
            <mxPoint as="offset" />
          </mxGeometry>
        </mxCell>
        <mxCell id="0yPfFVZ9I69ewQ06_f26-60" value="获取下个交易日" style="rounded=0;whiteSpace=wrap;html=1;align=center;verticalAlign=middle;" vertex="1" parent="1">
          <mxGeometry x="580" y="1474" width="120" height="60" as="geometry" />
        </mxCell>
        <mxCell id="0yPfFVZ9I69ewQ06_f26-61" value="no" style="endArrow=classic;html=1;exitX=1;exitY=0.5;exitDx=0;exitDy=0;entryX=0.5;entryY=0;entryDx=0;entryDy=0;" edge="1" parent="1" source="0yPfFVZ9I69ewQ06_f26-8" target="0yPfFVZ9I69ewQ06_f26-60">
          <mxGeometry x="-0.8909" y="10" width="50" height="50" relative="1" as="geometry">
            <mxPoint x="630" y="1334" as="sourcePoint" />
            <mxPoint x="680" y="1284" as="targetPoint" />
            <Array as="points">
              <mxPoint x="640" y="1264" />
            </Array>
            <mxPoint as="offset" />
          </mxGeometry>
        </mxCell>
        <mxCell id="0yPfFVZ9I69ewQ06_f26-62" value="" style="endArrow=classic;html=1;exitX=1;exitY=0.5;exitDx=0;exitDy=0;entryX=0.5;entryY=0;entryDx=0;entryDy=0;" edge="1" parent="1" source="0yPfFVZ9I69ewQ06_f26-12" target="0yPfFVZ9I69ewQ06_f26-60">
          <mxGeometry width="50" height="50" relative="1" as="geometry">
            <mxPoint x="630" y="1424" as="sourcePoint" />
            <mxPoint x="680" y="1374" as="targetPoint" />
            <Array as="points">
              <mxPoint x="640" y="1384" />
            </Array>
          </mxGeometry>
        </mxCell>
        <mxCell id="0yPfFVZ9I69ewQ06_f26-63" value="&amp;gt;17" style="edgeLabel;html=1;align=center;verticalAlign=middle;resizable=0;points=[];" vertex="1" connectable="0" parent="0yPfFVZ9I69ewQ06_f26-62">
          <mxGeometry x="-0.6539" y="-2" relative="1" as="geometry">
            <mxPoint as="offset" />
          </mxGeometry>
        </mxCell>
        <mxCell id="0yPfFVZ9I69ewQ06_f26-69" value="接口获取下次扣款日" style="rounded=1;whiteSpace=wrap;html=1;align=center;verticalAlign=middle;" vertex="1" parent="1">
          <mxGeometry x="335" y="1614" width="120" height="60" as="geometry" />
        </mxCell>
        <mxCell id="0yPfFVZ9I69ewQ06_f26-70" value="" style="endArrow=classic;html=1;exitX=0.5;exitY=1;exitDx=0;exitDy=0;entryX=0.5;entryY=0;entryDx=0;entryDy=0;" edge="1" parent="1" source="0yPfFVZ9I69ewQ06_f26-20" target="0yPfFVZ9I69ewQ06_f26-40">
          <mxGeometry width="50" height="50" relative="1" as="geometry">
            <mxPoint x="570" y="1674" as="sourcePoint" />
            <mxPoint x="620" y="1624" as="targetPoint" />
            <Array as="points">
              <mxPoint x="510" y="1634" />
              <mxPoint x="565" y="1634" />
            </Array>
          </mxGeometry>
        </mxCell>
        <mxCell id="0yPfFVZ9I69ewQ06_f26-71" value="" style="endArrow=classic;html=1;exitX=0.5;exitY=1;exitDx=0;exitDy=0;entryX=0.5;entryY=0;entryDx=0;entryDy=0;" edge="1" parent="1" source="0yPfFVZ9I69ewQ06_f26-60" target="0yPfFVZ9I69ewQ06_f26-40">
          <mxGeometry width="50" height="50" relative="1" as="geometry">
            <mxPoint x="650" y="1634" as="sourcePoint" />
            <mxPoint x="700" y="1584" as="targetPoint" />
            <Array as="points">
              <mxPoint x="640" y="1634" />
              <mxPoint x="565" y="1634" />
            </Array>
          </mxGeometry>
        </mxCell>
        <mxCell id="0yPfFVZ9I69ewQ06_f26-75" value="" style="endArrow=classic;html=1;exitX=1;exitY=0.5;exitDx=0;exitDy=0;entryX=0;entryY=0.5;entryDx=0;entryDy=0;" edge="1" parent="1" source="0yPfFVZ9I69ewQ06_f26-140" target="0yPfFVZ9I69ewQ06_f26-8">
          <mxGeometry x="-0.9519" y="20" width="50" height="50" relative="1" as="geometry">
            <mxPoint x="180" y="2074" as="sourcePoint" />
            <mxPoint x="230" y="2024" as="targetPoint" />
            <Array as="points">
              <mxPoint x="250" y="2200" />
              <mxPoint x="250" y="1264" />
            </Array>
            <mxPoint as="offset" />
          </mxGeometry>
        </mxCell>
        <mxCell id="0yPfFVZ9I69ewQ06_f26-140" value="srcOrderNo写入定投协议签署记录表" style="rounded=0;whiteSpace=wrap;html=1;align=center;verticalAlign=middle;" vertex="1" parent="1">
          <mxGeometry x="49" y="2170" width="120" height="60" as="geometry" />
        </mxCell>
        <mxCell id="0yPfFVZ9I69ewQ06_f26-181" value="" style="edgeStyle=orthogonalEdgeStyle;rounded=0;orthogonalLoop=1;jettySize=auto;html=1;" edge="1" parent="1" source="0yPfFVZ9I69ewQ06_f26-142" target="0yPfFVZ9I69ewQ06_f26-143">
          <mxGeometry relative="1" as="geometry" />
        </mxCell>
        <mxCell id="0yPfFVZ9I69ewQ06_f26-142" value="签约并定投收单" style="rounded=1;whiteSpace=wrap;html=1;align=center;verticalAlign=middle;" vertex="1" parent="1">
          <mxGeometry x="880" y="1234" width="120" height="60" as="geometry" />
        </mxCell>
        <mxCell id="0yPfFVZ9I69ewQ06_f26-182" value="" style="edgeStyle=orthogonalEdgeStyle;rounded=0;orthogonalLoop=1;jettySize=auto;html=1;" edge="1" parent="1" source="0yPfFVZ9I69ewQ06_f26-143" target="0yPfFVZ9I69ewQ06_f26-144">
          <mxGeometry relative="1" as="geometry" />
        </mxCell>
        <mxCell id="0yPfFVZ9I69ewQ06_f26-143" value="&lt;span&gt;调用签约收单接口&lt;/span&gt;" style="rounded=0;whiteSpace=wrap;html=1;align=center;verticalAlign=middle;" vertex="1" parent="1">
          <mxGeometry x="880" y="1354" width="120" height="60" as="geometry" />
        </mxCell>
        <mxCell id="0yPfFVZ9I69ewQ06_f26-144" value="签约收单接口返回正确" style="rhombus;whiteSpace=wrap;html=1;align=center;verticalAlign=middle;" vertex="1" parent="1">
          <mxGeometry x="870" y="1464" width="140" height="80" as="geometry" />
        </mxCell>
        <mxCell id="0yPfFVZ9I69ewQ06_f26-183" value="yes" style="endArrow=classic;html=1;exitX=0;exitY=0.5;exitDx=0;exitDy=0;entryX=0.5;entryY=0;entryDx=0;entryDy=0;" edge="1" parent="1" source="0yPfFVZ9I69ewQ06_f26-144" target="0yPfFVZ9I69ewQ06_f26-8">
          <mxGeometry x="-0.9419" y="-14" width="50" height="50" relative="1" as="geometry">
            <mxPoint x="760" y="1510" as="sourcePoint" />
            <mxPoint x="830" y="1260" as="targetPoint" />
            <Array as="points">
              <mxPoint x="830" y="1504" />
              <mxPoint x="830" y="1200" />
              <mxPoint x="510" y="1200" />
            </Array>
            <mxPoint as="offset" />
          </mxGeometry>
        </mxCell>
        <mxCell id="0yPfFVZ9I69ewQ06_f26-184" value="收单执行接口&lt;br&gt;入参date、taskType" style="rounded=1;whiteSpace=wrap;html=1;align=center;verticalAlign=middle;" vertex="1" parent="1">
          <mxGeometry x="1121" y="1234" width="120" height="60" as="geometry" />
        </mxCell>
        <mxCell id="0yPfFVZ9I69ewQ06_f26-185" value="获取日期首单表中日期为指定执行日期、指定taskType的记录" style="rounded=0;whiteSpace=wrap;html=1;align=center;verticalAlign=middle;" vertex="1" parent="1">
          <mxGeometry x="1122" y="1354" width="120" height="60" as="geometry" />
        </mxCell>
      </root>
    </mxGraphModel>
  </diagram>
</mxfile>
